<svg version="1.1" xmlns="http://www.w3.org/2000/svg" xmlns:xlink="http://www.w3.org/1999/xlink">
	<symbol id="cross" viewBox="0 0 24 24">
		<title>Cross</title>
		<path d="M24,20.2L15.7,12l8.2-8.3L20.2,0L12,8.3L3.7,0.1L0,3.8L8.3,12l-8.2,8.3L3.8,24l8.2-8.3l8.3,8.2L24,20.2z"/>
	</symbol>
	<symbol id="cross-thin" viewBox="0 0 24 24">
		<title>Cross</title>
		<polygon points="12,13.9 22.1,23.9 24,22 13.9,12 23.9,1.9 22,0 12,10.1 1.9,0.1 0,2 10.1,12 0.1,22.1 2,24"/>
	</symbol>
	<symbol id="refresh" viewBox="0 0 48 48">
		<title>Refresh</title>
		<path d="M6,24c0-5,2-9.5,5.3-12.7C14.5,8,19,6,24,6c4.3,0,8.2,1.5,11.3,4H32c-1.7,0-3,1.3-3,3c0,1.7,1.3,3,3,3h10c1.7,0,3-1.3,3-3V3c0-1.7-1.3-3-3-3c-1.7,0-3,1.3-3,3v2.3C34.9,2,29.7,0,24,0C10.7,0,0,10.7,0,24c0,1.7,1.3,3,3,3C4.7,27,6,25.7,6,24z"/>
		<path d="M45,21c-1.7,0-3,1.3-3,3c0,5-2,9.5-5.3,12.7C33.5,40,29,42,24,42c-4.3,0-8.2-1.5-11.3-4H16c1.7,0,3-1.3,3-3c0-1.7-1.3-3-3-3H6c-1.7,0-3,1.3-3,3v10c0,1.7,1.3,3,3,3c1.7,0,3-1.3,3-3v-2.3C13.1,46,18.3,48,24,48c13.3,0,24-10.7,24-24C48,22.3,46.7,21,45,21z"/>
	</symbol>
	<symbol id="screen" viewBox="0 0 24 20">
		<title>Screen</title>
		<path d="M22.2,0H1.8C0.8,0,0,0.8,0,1.8v13.8c0,1,0.8,1.8,1.8,1.8h9.8v1.8H7.4c-0.2,0-0.4,0.2-0.4,0.4C7,19.8,7.2,20,7.4,20h9.3c0.2,0,0.4-0.2,0.4-0.4c0-0.2-0.2-0.4-0.4-0.4h-4.3v-1.8h9.8c1,0,1.8-0.8,1.8-1.8V1.8C24,0.8,23.2,0,22.2,0z M23.3,15.6c0,0.6-0.5,1.1-1.1,1.1H1.8c-0.6,0-1.1-0.5-1.1-1.1V1.8c0-0.6,0.5-1.1,1.1-1.1h20.4c0.6,0,1.1,0.5,1.1,1.1V15.6z"/>
	</symbol>
	<symbol id="screen-light" viewBox="0 0 720 492" preserveAspectRatio="xMinYMin">
		<title>Screen</title>
		<path d="M720,39.6c0-10.9-4.4-20.8-11.6-28C701.2,4.4,691.3,0,680.4,0H39.6c-10.9,0-20.8,4.4-28,11.6C4.4,18.8,0,28.7,0,39.6v329.3c0,10.9,4.4,20.8,11.6,28c7.2,7.2,17.1,11.6,28,11.6h311.7c1.1,0,2.1,0.4,2.8,1.2c0.7,0.7,1.2,1.8,1.2,2.8v66c0,1.1-0.4,2.1-1.2,2.8c-0.7,0.7-1.8,1.2-2.8,1.2H248.8c-1.4,0-2.5,0.5-3.4,1.4c-0.9,0.9-1.4,2-1.4,3.4c0,1.3,0.5,2.4,1.4,3.3c0.9,0.9,2.1,1.4,3.4,1.4h222.5c1.3,0,2.4-0.5,3.3-1.4c0.9-0.9,1.4-2,1.4-3.3c0-1.4-0.5-2.5-1.4-3.4c-0.9-0.9-2-1.4-3.3-1.4H368.8c-1.1,0-2.1-0.4-2.8-1.2c-0.7-0.7-1.2-1.8-1.2-2.8v-66c0-1.1,0.4-2.1,1.2-2.8c0.7-0.7,1.8-1.2,2.8-1.2h311.6c11,0,20.9-4.4,28-11.6c7.2-7.2,11.6-17.1,11.6-28V39.6z M710.6,368.9c0,16.6-13.6,30.2-30.3,30.2H39.6c-16.6,0-30.1-13.5-30.2-30.2V39.6C9.5,23,23,9.5,39.6,9.5h640.7c16.7,0,30.3,13.5,30.3,30.2V368.9z"/>
	</symbol>
	<symbol id="wifi" viewBox="0 0 44 44">
		<title>WiFi</title>
		<path d="M6,32c-3.3,0-6,2.7-6,6c0,3.3,2.7,6,6,6c3.3,0,6-2.7,6-6C12,34.7,9.3,32,6,32z M6,42c-2.2,0-4-1.8-4-4s1.8-4,4-4s4,1.8,4,4S8.2,42,6,42z M1,10c-0.6,0-1,0.4-1,1c0,0.6,0.4,1,1,1c17.1,0,31,13.9,31,31c0,0.6,0.4,1,1,1c0.6,0,1-0.4,1-1C34,24.8,19.2,10,1,10z M1,20c-0.6,0-1,0.4-1,1c0,0.6,0.4,1,1,1c11.6,0,21,9.4,21,21c0,0.6,0.4,1,1,1s1-0.4,1-1C24,30.3,13.7,20,1,20z M1,0C0.4,0,0,0.4,0,1c0,0.6,0.4,1,1,1c22.6,0,41,18.4,41,41c0,0.6,0.4,1,1,1s1-0.4,1-1C44,19.3,24.7,0,1,0z"/>
	</symbol>
</svg>